# Blender v3.6.4 OBJ File: ''
# www.blender.org
mtllib Stanga.mtl
o Stanga_Cube.021
v -3.521017 3.896088 -4.323256
v -3.521017 4.377299 -4.323256
v -3.306963 3.896088 -5.825310
v -3.306964 4.377299 -5.825310
v -4.176289 4.377299 -6.132643
v -4.492043 3.896088 -4.040982
v -4.176288 3.896088 -6.132643
v -4.492043 4.377299 -4.040982
v -5.124718 3.896088 -5.636080
v -5.111214 4.377299 -4.431043
v -4.795603 4.377299 -4.230814
v -4.992362 3.896088 -6.040982
v -4.795603 3.896088 -4.230814
v -5.111214 3.896088 -4.431043
v -4.992362 4.377299 -6.040982
v -5.124718 4.377299 -5.636080
vt 0.625000 0.625000
vt 0.875000 0.625000
vt 0.875000 0.750000
vt 0.625000 0.750000
vt 0.375000 0.750000
vt 0.625000 1.000000
vt 0.375000 1.000000
vt 0.125000 0.625000
vt 0.375000 0.625000
vt 0.125000 0.750000
vt 0.375000 0.593827
vt 0.125000 0.593827
vt 0.125000 0.562500
vt 0.375000 0.562500
vt 0.625000 0.562500
vt 0.875000 0.562500
vt 0.875000 0.593827
vt 0.625000 0.593827
vt 0.375000 0.000000
vt 0.625000 0.000000
vt 0.625000 0.125000
vt 0.375000 0.125000
vt 0.625000 0.156173
vt 0.375000 0.156173
vt 0.625000 0.187500
vt 0.375000 0.187500
vn 0.0000 -1.0000 0.0000
vn 0.9900 0.0000 0.1411
vn 0.0000 1.0000 -0.0000
vn 0.2791 0.0000 0.9602
vn 0.3333 0.0000 -0.9428
vn -0.1116 -0.0000 -0.9938
vn -0.5330 -0.0000 0.8461
vn -0.9505 0.0000 -0.3107
vn -0.9999 0.0000 0.0112
usemtl Black
s off
f 6/1/1 7/2/1 3/3/1 1/4/1
f 2/5/2 1/4/2 3/6/2 4/7/2
f 5/8/3 8/9/3 2/5/3 4/10/3
f 8/9/4 6/1/4 1/4/4 2/5/4
f 11/11/3 8/9/3 5/8/3 15/12/3 16/13/3 10/14/3
f 14/15/1 9/16/1 12/17/1 7/2/1 6/1/1 13/18/1
f 4/19/5 3/20/5 7/21/5 5/22/5
f 5/22/6 7/21/6 12/23/6 15/24/6
f 10/14/7 14/15/7 13/18/7 6/1/7 8/9/7 11/11/7
f 15/24/8 12/23/8 9/25/8 16/26/8
f 9/25/9 14/15/9 10/14/9 16/26/9
o Cube.010_Cube.019
v -5.269241 4.352177 -5.631927
v -5.269241 3.897232 -5.631927
v -5.922132 4.352176 -6.014265
v -5.922132 3.897232 -6.014265
v -5.269241 4.352177 -4.447915
v -5.269240 3.897232 -4.447915
v -5.821714 4.352177 -4.901135
v -5.821714 3.897232 -4.901135
v -5.589891 4.352176 -6.013956
v -5.589890 3.897232 -6.013956
v -5.540573 4.352177 -4.670502
v -5.540573 3.897232 -4.670502
v -5.877487 4.352177 -5.317268
v -5.877487 3.897232 -5.317269
v -5.269241 4.352177 -5.307633
v -5.269241 3.897232 -5.307633
v -5.567965 3.897232 -5.317261
v -5.567965 4.352177 -5.317261
vt 0.375000 0.122781
vt 0.625000 0.122781
vt 0.625000 0.250000
vt 0.375000 0.250000
vt 0.375000 0.361148
vt 0.625000 0.361148
vt 0.625000 0.500000
vt 0.375000 0.500000
vt 0.375000 0.627219
vt 0.625000 0.627219
vt 0.625000 0.750000
vt 0.375000 0.750000
vt 0.375000 0.888852
vt 0.625000 0.888852
vt 0.625000 1.000000
vt 0.375000 1.000000
vt 0.236148 0.627219
vt 0.236148 0.750000
vt 0.763852 0.627219
vt 0.875000 0.627219
vt 0.875000 0.750000
vt 0.763852 0.750000
vt 0.763852 0.500000
vt 0.875000 0.500000
vt 0.236148 0.500000
vt 0.375000 0.000000
vt 0.625000 0.000000
vt 0.125000 0.500000
vt 0.125000 0.627219
vt 0.125000 0.750000
vn 0.0009 0.0000 -1.0000
vn -0.9911 -0.0000 0.1328
vn -0.6342 -0.0000 0.7731
vn 1.0000 0.0000 0.0000
vn -0.0000 1.0000 -0.0000
vn 0.0000 -1.0000 0.0000
vn 0.7660 0.0000 -0.6429
vn -0.9980 -0.0000 0.0639
usemtl Black
s off
f 25/27/10 26/28/10 20/29/10 19/30/10
f 29/31/11 30/32/11 24/33/11 23/34/11
f 27/35/12 28/36/12 22/37/12 21/38/12
f 31/39/13 32/40/13 18/41/13 17/42/13
f 34/43/14 27/35/14 21/38/14 31/44/14
f 33/45/15 26/46/15 18/47/15 32/48/15
f 30/49/15 20/50/15 26/46/15 33/45/15
f 29/51/14 23/34/14 27/35/14 34/43/14
f 23/34/12 24/33/12 28/36/12 27/35/12
f 17/52/16 18/53/16 26/28/16 25/27/16
f 19/54/14 29/51/14 34/43/14 25/55/14
f 24/33/15 30/49/15 33/45/15 28/36/15
f 28/36/15 33/45/15 32/48/15 22/37/15
f 25/55/14 34/43/14 31/44/14 17/56/14
f 21/38/13 22/37/13 32/40/13 31/39/13
f 19/30/17 20/29/17 30/32/17 29/31/17
o Cube.003_Cube.018
v -4.209662 4.361314 -8.227548
v -4.209662 3.896085 -8.227548
v -4.819341 4.361314 -7.902355
v -4.819340 3.896085 -7.902355
v -4.158774 4.361315 -6.285611
v -4.158774 3.896086 -6.285611
v -4.967734 4.361314 -6.285610
v -4.967734 3.896085 -6.285610
v -4.904858 4.361314 -7.039538
v -4.904858 3.896085 -7.039538
v -4.180336 4.361314 -7.039539
v -4.180336 3.896085 -7.039539
v -4.858066 4.361314 -7.600614
v -4.196382 3.896085 -7.600616
v -4.858066 3.896085 -7.600615
v -4.196383 4.361314 -7.600615
vt 0.375000 0.000000
vt 0.625000 0.000000
vt 0.625000 0.250000
vt 0.375000 0.250000
vt 0.375000 0.394072
vt 0.625000 0.394072
vt 0.625000 0.500000
vt 0.375000 0.500000
vt 0.625000 0.750000
vt 0.375000 0.750000
vt 0.375000 0.934760
vt 0.625000 0.934760
vt 0.625000 1.000000
vt 0.375000 1.000000
vt 0.269072 0.500000
vt 0.269072 0.750000
vt 0.809760 0.500000
vt 0.875000 0.500000
vt 0.875000 0.750000
vt 0.809760 0.750000
vt 0.730928 0.500000
vt 0.730928 0.750000
vt 0.190240 0.500000
vt 0.190240 0.750000
vt 0.625000 0.855928
vt 0.375000 0.855928
vt 0.375000 0.315240
vt 0.625000 0.315240
vt 0.125000 0.500000
vt 0.125000 0.750000
vn -0.4706 -0.0000 -0.8823
vn -0.9965 -0.0000 -0.0831
vn 0.0000 0.0000 1.0000
vn 0.9998 0.0000 -0.0212
vn -0.0000 1.0000 -0.0000
vn 0.0000 -1.0000 0.0000
vn 0.9996 0.0000 -0.0286
vn -0.9919 -0.0000 -0.1273
usemtl Black
s off
f 35/57/18 36/58/18 38/59/18 37/60/18
f 43/61/19 44/62/19 42/63/19 41/64/19
f 41/64/20 42/63/20 40/65/20 39/66/20
f 50/67/21 48/68/21 36/69/21 35/70/21
f 43/71/22 41/64/22 39/66/22 45/72/22
f 49/73/23 38/74/23 36/75/23 48/76/23
f 42/63/23 44/77/23 46/78/23 40/65/23
f 47/79/22 43/71/22 45/72/22 50/80/22
f 39/66/24 40/65/24 46/81/24 45/82/24
f 47/83/19 49/84/19 44/62/19 43/61/19
f 37/60/25 38/59/25 49/84/25 47/83/25
f 37/85/22 47/79/22 50/80/22 35/86/22
f 44/77/23 49/73/23 48/76/23 46/78/23
f 45/82/24 46/81/24 48/68/24 50/67/24
o Cube.002_Cube.017
v -3.457909 4.380308 -7.697174
v -3.457909 3.896086 -7.697174
v -4.057774 4.380308 -7.831541
v -4.057773 3.896086 -7.831541
v -3.306959 4.380309 -5.977140
v -3.306958 3.896086 -5.977140
v -4.034308 4.380308 -6.276691
v -4.034308 3.896086 -6.276691
v -4.043107 4.380308 -6.744043
v -4.043107 3.896086 -6.744043
v -3.363557 4.380309 -6.737693
v -3.363557 3.896086 -6.737692
v -4.049799 4.380308 -7.207898
v -3.406611 3.896086 -7.207899
v -4.049799 3.896086 -7.207899
v -3.406612 4.380309 -7.207898
vt 0.375000 0.000000
vt 0.625000 0.000000
vt 0.625000 0.250000
vt 0.375000 0.250000
vt 0.375000 0.406264
vt 0.625000 0.406264
vt 0.625000 0.500000
vt 0.375000 0.500000
vt 0.625000 0.750000
vt 0.375000 0.750000
vt 0.375000 0.915041
vt 0.625000 0.915042
vt 0.625000 1.000000
vt 0.375000 1.000000
vt 0.281264 0.500000
vt 0.281264 0.750000
vt 0.790041 0.500000
vt 0.875000 0.500000
vt 0.875000 0.750000
vt 0.790041 0.750000
vt 0.718736 0.500000
vt 0.718736 0.750000
vt 0.209958 0.500000
vt 0.209958 0.750000
vt 0.625000 0.843737
vt 0.375000 0.843736
vt 0.375000 0.334958
vt 0.625000 0.334958
vt 0.125000 0.500000
vt 0.125000 0.750000
vn 0.2186 0.0000 -0.9758
vn -0.9998 -0.0000 0.0188
vn -0.3808 -0.0000 0.9247
vn 0.9945 0.0000 -0.1043
vn -0.0000 1.0000 0.0000
vn 0.0000 -1.0000 0.0000
vn 0.9972 0.0000 -0.0742
vn -0.9999 0.0000 0.0144
vn -0.9999 0.0000 0.0128
vn 0.9958 0.0000 -0.0912
usemtl Black
s off
f 51/87/26 52/88/26 54/89/26 53/90/26
f 59/91/27 60/92/27 58/93/27 57/94/27
f 57/94/28 58/93/28 56/95/28 55/96/28
f 66/97/29 64/98/29 52/99/29 51/100/29
f 59/101/30 57/94/30 55/96/30 61/102/30
f 65/103/31 54/104/31 52/105/31 64/106/31
f 58/93/31 60/107/31 62/108/31 56/95/31
f 63/109/30 59/101/30 61/102/30 66/110/30
f 55/96/32 56/95/32 62/111/32 61/112/32
f 63/113/33 65/114/33 60/92/33 59/91/33
f 53/90/34 54/89/34 65/114/34 63/113/34
f 53/115/30 63/109/30 66/110/30 51/116/30
f 60/107/31 65/103/31 64/106/31 62/108/31
f 61/112/35 62/111/35 64/98/35 66/97/35
